# xmcd CD database file
#
# Track frame offsets:
#	150
#	14474
#	27084
#	42058
#	56393
#	69694
#	82069
#	93390
#	104488
#	120515
#	132780
#	158557
#
# Disc length: 2313 seconds
#
# Revision: 0
# Processed by: cddbd v1.5.1PL2 Copyright (c) Steve Scherf et al.
# Submitted via: CDex 1.51
#
DISCID=9209070c
DTITLE=Rocky Votolato - Makers
DYEAR=2006
DGENRE=Country
TTITLE0=White Daisy Passing
TTITLE1=Portland Is Leaving
TTITLE2=The Night's Disguise
TTITLE3=She was Only In It For The Rain
TTITLE4=Uppers Aren't Necessary
TTITLE5=Wait Out The Days
TTITLE6=Streetlights
TTITLE7=Tenessee Train Tracks
TTITLE8=Goldfield
TTITLE9=Tinfoil Hats
TTITLE10=Where We Left Off
TTITLE11=Makers
EXTD=YEAR: 2006
EXTT0=
EXTT1=
EXTT2=
EXTT3=
EXTT4=
EXTT5=
EXTT6=
EXTT7=
EXTT8=
EXTT9=
EXTT10=
EXTT11=
PLAYORDER=
